<?xml version="1.0" encoding="utf-8"?>
<!-- Generator: Adobe Illustrator 18.1.1, SVG Export Plug-In . SVG Version: 6.00 Build 0)  -->
<svg version="1.1" id="Ebene_1" xmlns="http://www.w3.org/2000/svg" xmlns:xlink="http://www.w3.org/1999/xlink" x="0px" y="0px"
	 width="32.2px" height="32.2px" viewBox="0 0 32.2 32.2" style="enable-background:new 0 0 32.2 32.2;" xml:space="preserve">
<g>
	<g>
		<path style="fill:#999999;" d="M16.1,32.2c-0.7,0.1-1.4-0.2-2-0.1c-0.8-0.2-1.7-0.2-2.4-0.6c-1.3-0.2-2.3-0.8-3.4-1.4
			c-0.8-0.4-1.5-1-2.2-1.6c-0.7-0.6-1.4-1.2-2-1.9c-0.6-0.7-1.2-1.5-1.7-2.3c-0.3-0.5-0.6-1-0.8-1.6c-0.3-0.7-0.7-1.4-0.8-2.1
			c-0.3-0.5-0.2-1.1-0.5-1.6c0.1-0.4-0.2-0.9-0.1-1.3C0.2,17.2,0,16.7,0,16.2c0-0.7,0.2-1.3,0.1-2c0.2-0.5,0.1-1.1,0.4-1.6
			c-0.1-0.5,0.2-0.9,0.3-1.3c0.1-0.4,0.4-0.8,0.5-1.3C1.5,9.5,1.7,9,2,8.6c0.4-0.7,0.8-1.4,1.3-2c0.7-0.9,1.5-1.7,2.3-2.5
			c0.4-0.4,0.8-0.7,1.2-1C7.5,2.6,8.4,2,9.3,1.6c0.7-0.3,1.5-0.7,2.3-0.8c0.3-0.3,0.7-0.2,1.1-0.3c0.4-0.1,0.8-0.1,1.2-0.2
			c0.4-0.1,0.7-0.1,1.1-0.1c0.3,0,0.6,0.1,0.9-0.1c0.1-0.1,0.3-0.1,0.5,0c0.4,0.2,0.9,0.1,1.3,0.1c0.3,0,0.7,0.1,1,0.1
			c0.3,0.1,0.6,0.2,1,0.2c0.4,0,0.8,0.2,1.2,0.3c0.4,0.1,0.7,0.3,1.1,0.4c0.5,0.2,1,0.4,1.4,0.7c0.8,0.4,1.6,0.9,2.4,1.5
			c0.7,0.5,1.3,1.1,1.9,1.7c0.5,0.6,1,1.2,1.4,1.8c0.6,0.8,1.1,1.7,1.5,2.6c0.4,0.8,0.7,1.7,0.9,2.6c0.1,0.6,0.3,1.3,0.4,1.9
			c0.1,0.4,0.1,0.9,0.1,1.3c0,0.1,0,0.3,0.1,0.4c0.1,0.2,0.1,0.5,0,0.7C32,16.6,32,16.9,32,17.1c-0.1,0.3,0.1,0.7-0.1,1
			c-0.1,0.3,0.1,0.6-0.1,0.9c0,0.6-0.2,1.1-0.4,1.7c-0.3,1.1-0.7,2.1-1.3,3.1c-0.4,0.6-0.7,1.2-1.2,1.8c-0.7,0.9-1.5,1.7-2.3,2.5
			c-0.3,0.3-0.7,0.6-1.2,0.9c-0.3,0.2-0.6,0.4-0.9,0.6c-0.3,0.2-0.6,0.4-0.9,0.6c-0.3,0.1-0.6,0.3-1,0.5c-0.6,0.3-1.3,0.6-2,0.7
			c-0.3,0.1-0.6,0.1-0.8,0.3c-0.3,0.1-0.6,0-0.8,0.2c-0.2,0.1-0.6,0-0.9,0.1C17.4,32,16.7,32.3,16.1,32.2z M8.7,15.3
			c2.2,0,4.4,0,6.6,0c0-2.1,0-4.2,0-6.2c-1.7,0-3.4,0-5.1,0c-0.1,0-0.2,0-0.3,0c-0.2,0-0.3,0.1-0.3,0.2C9.5,9.5,9.5,9.6,9.4,9.8
			c-0.2,0.8-0.3,1.5-0.5,2.3c-0.1,0.7-0.2,1.4-0.3,2.1C8.7,14.6,8.7,14.9,8.7,15.3z M15.3,23.1c0-2.1,0-4.2,0-6.2
			c-2.2,0-4.4,0-6.6,0c0.1,0.5,0,1,0.1,1.5c0.1,0.4,0,0.8,0.1,1.2c0.1,0.3,0,0.8,0.2,1.1c0.1,0.3,0.1,0.6,0.2,0.8
			c0.2,0.4,0.2,0.8,0.3,1.2c0.1,0.3,0.1,0.4,0.4,0.4C11.7,23.1,13.5,23.1,15.3,23.1z M23.1,15.3c0.1-1.1-0.1-2.1-0.2-3.2
			c-0.1-1-0.4-2-0.6-3c-1.8,0-3.6,0-5.3,0c0,2.1,0,4.1,0,6.2C18.9,15.3,20.9,15.3,23.1,15.3z M16.8,23.1c0.1,0,0.1,0,0.2,0
			c1.6,0,3.1,0,4.7,0c0.1,0,0.2,0,0.2,0c0.2,0,0.3-0.1,0.3-0.2c0.1-0.6,0.3-1.1,0.4-1.7c0-0.1,0.1-0.3,0.1-0.4
			c0-0.4,0.2-0.8,0.1-1.2c0.3-0.4,0.1-1,0.2-1.4c0.1-0.4,0-0.8,0-1.2c-2.1,0-4.2,0-6.2,0C16.8,19,16.8,21,16.8,23.1z M30.5,15.4
			c0-0.4,0.1-0.8-0.1-1.2c0.1-0.7-0.2-1.4-0.4-2.1c-0.3-0.9-0.6-1.8-1-2.6c-0.1-0.3-0.3-0.3-0.5-0.3c-1.5,0-2.9,0-4.4,0
			c-0.2,0-0.3,0-0.4,0c0.1,0.5,0.2,0.9,0.3,1.3c0.1,0.2,0,0.5,0.1,0.7c0.1,0.3,0,0.6,0.1,0.8c0.1,0.2,0.1,0.5,0.1,0.7
			c0,0.2,0.1,0.5,0.1,0.7c-0.1,0.7,0.2,1.3,0.1,2C26.6,15.4,28.5,15.4,30.5,15.4z M24.5,16.9c0.1,0.7-0.2,1.4-0.1,2.1
			c0,0.1,0,0.2,0,0.2c-0.2,0.2-0.1,0.4-0.1,0.6c0,0.2-0.1,0.5-0.1,0.7c0,0.2-0.1,0.4-0.1,0.6c0,0.5-0.3,0.9-0.3,1.4
			c-0.2,0.2-0.1,0.4-0.1,0.6c1.6,0,3.2,0,4.8,0c0.2,0,0.4,0,0.5-0.3c0.2-0.5,0.5-0.9,0.7-1.4c0.2-0.4,0.3-0.8,0.4-1.2
			c0.1-0.7,0.4-1.3,0.4-2c0.2-0.4,0.1-0.8,0.1-1.2C28.5,16.9,26.5,16.9,24.5,16.9z M8.2,9.2C8.2,9.1,8.1,9.1,8.2,9.2
			c-1.6,0-3.1,0-4.6,0c-0.2,0-0.4,0-0.4,0.3c0,0.1-0.1,0.2-0.2,0.3c-0.3,0.6-0.4,1.2-0.8,1.8c0,0.6-0.4,1.2-0.4,1.8
			c-0.3,0.3-0.1,0.6-0.2,1c-0.1,0.3,0,0.7,0,1.1c1.9,0,3.7,0,5.6,0C7.4,13.3,7.6,11.2,8.2,9.2z M1.6,16.9c0,0.5,0,1,0.1,1.5
			c0.1,0.5,0.3,1,0.3,1.5c0.4,1,0.7,2,1.2,2.9c0.1,0.3,0.3,0.4,0.6,0.4c1.3,0,2.6,0,3.9,0c0.2,0,0.3,0,0.5,0c-0.1-0.2,0-0.4-0.1-0.6
			c-0.1-0.1,0-0.4-0.1-0.6c-0.1-0.2-0.1-0.5-0.2-0.8c0-0.3-0.2-0.6-0.1-0.9c-0.2-0.2-0.1-0.5-0.1-0.7c0-0.2-0.1-0.5-0.1-0.7
			c0.1-0.7-0.2-1.3-0.1-2C5.4,16.9,3.5,16.9,1.6,16.9z M10.2,7.6c1.7,0,3.4,0,5.1,0c0-2,0-4,0-6c-0.3,0-0.6,0-0.8,0
			c-0.2,0-0.5,0.1-0.7,0.1c-0.3,0-0.5,0.1-0.6,0.4c0,0.1-0.1,0.1-0.1,0.2c-0.6,0.7-1,1.4-1.4,2.2C11,5.5,10.5,6.5,10.2,7.6z
			 M15.3,24.6c-1.7,0-3.4,0-5.1,0c0,0,0,0,0,0c0,0,0,0,0,0.1c0.2,0.5,0.4,1.1,0.7,1.6c0.4,0.8,0.8,1.6,1.3,2.3
			c0.3,0.4,0.5,0.8,0.7,1.2c0,0,0.5,0.6,0.5,0.6c0.2,0.2,0.5,0.1,0.7,0.1c0.1,0,0.1,0,0.2,0c0.3,0.3,0.7,0.1,1,0.1
			C15.3,28.5,15.3,26.6,15.3,24.6z M16.8,1.6c0,2,0,4,0,6c1.6,0,3.2,0,4.8,0c-0.2-0.5-0.4-1-0.6-1.4c-0.4-0.8-0.7-1.5-1.2-2.3
			c-0.4-0.7-0.9-1.3-1.3-2c-0.1-0.1-0.2-0.2-0.3-0.2C17.7,1.6,17.3,1.7,16.8,1.6z M16.8,24.6c0,2,0,4,0,6c0.5-0.1,1-0.1,1.4-0.2
			c0.1,0,0.2-0.1,0.2-0.2c0.1-0.1,0.1-0.2,0.1-0.2c0.7-0.8,1.3-1.8,1.8-2.8c0.5-0.8,0.9-1.7,1.2-2.7C20,24.6,18.4,24.6,16.8,24.6z
			 M27.9,7.6c-0.9-1.4-2.1-2.5-3.4-3.4c-1.2-0.9-2.5-1.6-4-2c0.6,0.8,1,1.5,1.4,2.3c0.3,0.6,0.6,1.1,0.8,1.7
			c0.1,0.4,0.3,0.7,0.4,1.1c0.1,0.2,0.2,0.3,0.4,0.3C24.9,7.6,26.3,7.6,27.9,7.6z M20.6,29.9c3-1,5.5-2.8,7.3-5.3
			c-0.9,0-1.8,0-2.7,0c-0.6,0-1.1,0-1.7,0c-0.2,0-0.3,0.1-0.4,0.2c-0.1,0.4-0.3,0.8-0.5,1.2c-0.2,0.6-0.5,1.2-0.8,1.8
			C21.5,28.5,21,29.1,20.6,29.9z M4.2,7.6c0.2,0,0.3,0,0.4,0c1.1,0,2.1,0,3.2,0c0.3,0,0.6,0.1,0.8,0c0.2-0.1,0.2-0.5,0.3-0.7
			c0.2-0.4,0.3-0.8,0.5-1.2c0.5-1.1,1-2.2,1.8-3.2c-0.4,0-0.7,0.1-1,0.3C9.4,3.2,8.5,3.6,7.7,4.2c-0.5,0.4-1,0.8-1.4,1.1
			C5.9,5.7,5.5,6.1,5.2,6.5C4.9,6.8,4.6,7.2,4.2,7.6z M4.3,24.6c1.8,2.4,4,4.1,6.9,5.2c-0.5-0.7-0.8-1.3-1.2-2
			c-0.3-0.6-0.6-1.2-0.9-1.8c-0.1-0.4-0.3-0.7-0.4-1.1c-0.1-0.2-0.2-0.2-0.4-0.2c-0.5,0-0.9,0-1.4,0C6.1,24.6,5.2,24.6,4.3,24.6z"/>
	</g>
</g>
</svg>
