<?xml version="1.0" encoding="utf-8"?>
<!-- Generator: Adobe Illustrator 18.1.1, SVG Export Plug-In . SVG Version: 6.00 Build 0)  -->
<svg version="1.1" id="Ebene_1" xmlns="http://www.w3.org/2000/svg" xmlns:xlink="http://www.w3.org/1999/xlink" x="0px" y="0px"
	 width="1280px" height="215.5px" viewBox="0 0 1280 215.5" style="enable-background:new 0 0 1280 215.5;" xml:space="preserve">
<path style="fill:#82CEE6;" d="M1268.4,133.5V98.8l-2.5-6.4l-3,6.4v-37l-2.7-7.6h-1.5l-6.8-42.1L1251,0h-0.1l-0.9,12.1l-6.8,42.1
	h-1.5l-2.7,7.6v37l-3-6.4l-2.5,6.4v14.1h-9.6v-3.4h-3.5v3.4h-9.8v-3.4h-3.5v3.4h-33.9v-3.4h-3.5v3.4h-9.8v-3.4h-3.5v3.4h-3.3l-7.3,8
	h-0.9v-7.7h-3.5v7.7h-26.2v-4.5h-3.5v4.5h-9.8l-13,11.2l0,0v-31.5l7.2-3.5c-16.7-4.3-19.4-13.1-19.4-16.1l-0.5-9.6l-3.6-21.3
	l-3.6,21.3l-0.5,9.6c0,3-2.7,11.7-19.4,16.1l7.2,3.5v31.5l-3.6,1.3v30H915.1h-7.3v-17.8l-14-7v-5h-4.5v2.8l-8.5-4.2l-26.4,14.9v7.9
	h-22v-7.9h-9.6v-13.2l-12-0.2V95.6h-6.2l-9.9-53.1l-9.9,53.1h-6.4V133h-27v-10.2h-10.8V88.4h-4.8v-9.1h-2.9v-7.5h-2.4l-2.4-15.6
	l-3.3,15.4h-17.6V51.4l-16.4-4.7l-0.2-5.9h0.9v-2h-1l-1.2-29.4L688,38.7h-0.8v2h0.7l-0.3,6l-19.5,4.2V72l-12.5-0.5v3.1l-12-1.2v32
	h-27.9v3.9h-37.1v13.5h-6.7v-13.9v-1.5l2.3-2.9l0.1-1.5l-2.4,0v-4.7h0c-0.2-2.7-2.4-4.8-5.1-4.8c-2.9,0-5.2,2.3-5.2,5.2
	c0,0.1,0,0.2,0,0.3l0,0v5.5l-12.4-9.4V67l2.7-7.7h-33l2.2,7.7v25.5h-64V111h-7.2v14l-10.8,9.1v25.3h-8.2h-4.3v-11.8h4.3l-8.7-18.1
	h-3.5v-2.9h-4.1v2.9h-24.1l-4.2,8.8v-3.1v-17h-8.4v17h-4.4v-9.9h-12.2v9.9h-14l-3,7.6h-12.5v-19.4h8.8l-12.4-15.8H304l-2.4,3V88.8
	h-32.1V131H266l-10.3,13.1h-10.3v-3.7h6.6l-13.3-26.1h-40.8V88.8h5.2l-19.8-26.5l-19.8,26.5h5.2V135h-19.5l-2.2-8.4h-19.6l-1,3.9
	h-6.6l-2.1,8.4h-16v-38H87.1v17.2H70.8l-2.9-10.6H45.4v-4.7h-3.8v4.7h-3.2l-5.3,19.5H16.6L4.2,142.9h5.3v16.6H4.2H0v56.1h1280v-82
	H1268.4z M918.9,183.6c0-8.2,6.7-14.9,14.9-14.9c8.2,0,14.9,6.7,14.9,14.9H918.9z M966,183.6c0-8.2,6.7-14.9,14.9-14.9
	s14.9,6.7,14.9,14.9H966z M1013.2,183.6c0-8.2,6.7-14.9,14.9-14.9s14.9,6.7,14.9,14.9H1013.2z"/>
</svg>
